<mxfile host="app.diagrams.net" modified="2022-10-28T15:14:07.757Z" agent="5.0 (Windows NT 10.0; Win64; x64) AppleWebKit/537.36 (KHTML, like Gecko) Chrome/106.0.0.0 Safari/537.36 Edg/106.0.1370.52" etag="yodonTiniJlPD25iW593" version="20.5.1" type="github">
  <diagram name="Page-1" id="efa7a0a1-bf9b-a30e-e6df-94a7791c09e9">
    <mxGraphModel dx="998" dy="4127" grid="1" gridSize="10" guides="1" tooltips="1" connect="1" arrows="1" fold="1" page="1" pageScale="1" pageWidth="826" pageHeight="1169" background="none" math="0" shadow="0">
      <root>
        <mxCell id="0" />
        <mxCell id="1" parent="0" />
        <mxCell id="eCvSq5V_SAz9p86dtCav-114" value="&lt;span style=&quot;background-color: initial;&quot;&gt;1. Model database&lt;br&gt;2. Connect database to backend.&lt;br&gt;3. Make api to login and sign in&lt;br&gt;4. Make password reset functionality&lt;br&gt;5. Define routes to home page and to meeting page&amp;nbsp;&lt;/span&gt;" style="whiteSpace=wrap;html=1;aspect=fixed;" vertex="1" parent="1">
          <mxGeometry x="70" y="-2970" width="140" height="140" as="geometry" />
        </mxCell>
        <mxCell id="eCvSq5V_SAz9p86dtCav-115" value="User&lt;br&gt;user_id&lt;br&gt;name&lt;br&gt;address" style="whiteSpace=wrap;html=1;aspect=fixed;align=left;" vertex="1" parent="1">
          <mxGeometry x="80" y="-2760" width="80" height="80" as="geometry" />
        </mxCell>
        <mxCell id="eCvSq5V_SAz9p86dtCav-116" value="User credentials&lt;br&gt;user_id&lt;br&gt;email&lt;br&gt;password" style="whiteSpace=wrap;html=1;aspect=fixed;" vertex="1" parent="1">
          <mxGeometry x="210" y="-2760" width="80" height="80" as="geometry" />
        </mxCell>
        <mxCell id="eCvSq5V_SAz9p86dtCav-117" value="User Profile&lt;br&gt;user_id&lt;br&gt;username&lt;br&gt;user profile&lt;br&gt;profession&lt;br&gt;" style="whiteSpace=wrap;html=1;aspect=fixed;" vertex="1" parent="1">
          <mxGeometry x="320" y="-2760" width="80" height="80" as="geometry" />
        </mxCell>
        <mxCell id="eCvSq5V_SAz9p86dtCav-119" value="integrate socket io, peer js&lt;br&gt;get video stream&lt;br&gt;establish connection&lt;br&gt;establish in call messaging feature&lt;br&gt;establish screen sharing feature&lt;br&gt;" style="whiteSpace=wrap;html=1;aspect=fixed;" vertex="1" parent="1">
          <mxGeometry x="260" y="-3060" width="230" height="230" as="geometry" />
        </mxCell>
      </root>
    </mxGraphModel>
  </diagram>
</mxfile>
